<svg width="150" height="300" viewBox="0 0 150 300" fill="none" xmlns="http://www.w3.org/2000/svg">
  <!-- Main circular shape -->
  <path d="M50 150C50 116.863 76.8629 90 110 90C143.137 90 170 116.863 170 150C170 183.137 143.137 210 110 210C76.8629 210 50 183.137 50 150Z" fill="#FF6B6B" opacity="0.2"/>
  
  <!-- Smaller decorative circles -->
  <circle cx="30" cy="100" r="20" fill="#FF6B6B" opacity="0.15"/>
  <circle cx="20" cy="150" r="15" fill="#FF6B6B" opacity="0.15"/>
  <circle cx="30" cy="200" r="25" fill="#FF6B6B" opacity="0.15"/>
  
  <!-- Decorative lines -->
  <path d="M40 80C40 80 60 100 80 90C100 80 110 50 130 60" stroke="#FF6B6B" stroke-width="2" opacity="0.5" stroke-linecap="round"/>
  <path d="M40 220C40 220 60 200 80 210C100 220 110 250 130 240" stroke="#FF6B6B" stroke-width="2" opacity="0.5" stroke-linecap="round"/>
</svg>