<svg width="120" height="40" viewBox="0 0 120 40" fill="none" xmlns="http://www.w3.org/2000/svg">
  <path d="M15.2 8.4C19.6 8.4 23.2 12 23.2 16.4C23.2 20.8 19.6 24.4 15.2 24.4C10.8 24.4 7.2 20.8 7.2 16.4C7.2 12 10.8 8.4 15.2 8.4Z" fill="#FFFFFF"/>
  <path d="M32.8 8.4H27.2V24.4H32.8V8.4Z" fill="#FFFFFF"/>
  <path d="M48.4 8.4C52.8 8.4 56.4 12 56.4 16.4C56.4 20.8 52.8 24.4 48.4 24.4H40.4V8.4H48.4ZM48.4 18.8C49.6 18.8 50.8 17.6 50.8 16.4C50.8 15.2 49.6 14 48.4 14H46V18.8H48.4Z" fill="#FFFFFF"/>
  <path d="M72 8.4V14H64V16.4H72V22H64V24.4H72V30H58.4V8.4H72Z" fill="#FFFFFF"/>
  <path d="M88.4 8.4L96.4 24.4H90.8L89.6 22H83.2L82 24.4H76.4L84.4 8.4H88.4ZM86.4 14.8L84.8 18.4H88L86.4 14.8Z" fill="#FFFFFF"/>
  <path d="M112 8.4V14H104V16.4H112V22H104V24.4H112V30H98.4V8.4H112Z" fill="#FFFFFF"/>
  <path d="M120 8.4H114.4V24.4H120V8.4Z" fill="#FFFFFF"/>
  <path d="M15.2 30.4C10.8 30.4 7.2 26.8 7.2 22.4H1.6C1.6 30 7.6 36 15.2 36C22.8 36 28.8 30 28.8 22.4H23.2C23.2 26.8 19.6 30.4 15.2 30.4Z" fill="#FFFFFF"/>
</svg>